<svg xmlns="http://www.w3.org/2000/svg" width="48" height="48" viewBox="0 0 48 48" fill="none">
  <path d="M23.8998 36.3801V27.8401C23.8998 26.7015 24.1758 25.5092 24.8944 24.5351C25.616 23.5568 26.8446 22.8723 28.3385 22.8989M23.8998 36.3801L28.3367 22.9988M23.8998 36.3801H20.2598V20.2601H23.8998V21.6582C23.8999 21.8805 23.9698 22.0971 24.0997 22.2775C24.2296 22.4578 24.4129 22.5928 24.6237 22.6633C24.8345 22.7338 25.0621 22.7362 25.2744 22.6703C25.4867 22.6044 25.6728 22.4734 25.8066 22.2959L25.8076 22.2945L23.8998 36.3801ZM28.3385 22.8989L28.3367 22.9988M28.3385 22.8989C28.3385 22.8989 28.3385 22.8989 28.3384 22.8989L28.3367 22.9988M28.3385 22.8989C29.8222 22.9244 31.0306 23.594 31.7507 24.561C32.468 25.5243 32.7398 26.7052 32.7398 27.8401V36.3801M28.3367 22.9988C29.7904 23.0238 30.9694 23.6793 31.6705 24.6207C32.3715 25.5621 32.6398 26.7201 32.6398 27.8401V36.3801H32.7398M32.7398 36.3801V36.4801H36.3798V36.3801M32.7398 36.3801H36.3798M36.3798 36.3801H36.4798L25.8076 22.2945L25.8077 22.2944L25.8082 22.2936L25.8111 22.2899L25.8233 22.2739C25.8345 22.2596 25.8515 22.2383 25.8745 22.2108C25.9206 22.156 25.9905 22.077 26.0849 21.9818C26.2738 21.7914 26.5602 21.5366 26.9486 21.2815C27.7248 20.7717 28.9093 20.2601 30.5398 20.2601C32.1998 20.2601 33.6155 20.811 34.6485 21.9014C35.6817 22.9919 36.3798 24.6801 36.3798 27.1313V36.3801ZM13.4384 17.3688V17.3688L17.3666 13.8322C17.3666 13.8321 17.3666 13.8319 17.3666 13.8318C17.2653 11.9464 15.5869 10.4713 13.4398 10.4713C12.3689 10.4713 11.3988 10.7915 10.6773 11.3986C9.95495 12.0064 9.51109 12.9147 9.51109 13.8882C9.51109 15.7411 11.112 17.168 13.1214 17.315C13.2237 17.3491 13.3306 17.3673 13.4384 17.3688ZM28.3012 25.0188H28.3013C28.7633 25.0268 29.1095 25.1097 29.3838 25.2481C29.6577 25.3862 29.8664 25.5827 30.049 25.8279C30.4117 26.3149 30.6198 27.055 30.6198 27.8401V37.4401C30.6199 37.7212 30.7316 37.9908 30.9303 38.1896C31.1291 38.3884 31.3987 38.5001 31.6798 38.5001H37.4398C37.721 38.5001 37.9906 38.3884 38.1893 38.1896C38.3881 37.9908 38.4998 37.7212 38.4998 37.4401V27.1313C38.4998 24.2687 37.6517 21.99 36.1868 20.4438C34.7218 18.8975 32.6865 18.1401 30.5398 18.1401C28.5937 18.1401 27.0903 18.7625 26.0198 19.4253V19.2001C26.0198 18.919 25.9081 18.6494 25.7093 18.4506C25.5106 18.2518 25.241 18.1401 24.9599 18.1401H19.1998C18.9187 18.1401 18.6491 18.2518 18.4503 18.4506C18.2516 18.6494 18.1399 18.919 18.1398 19.2001V37.4401C18.1399 37.7212 18.2516 37.9908 18.4503 38.1896C18.6491 38.3884 18.9187 38.5001 19.1998 38.5001H24.9598C25.241 38.5001 25.5106 38.3884 25.7093 38.1896C25.9081 37.9908 26.0198 37.7212 26.0198 37.4401V27.8401C26.0198 27.0585 26.2337 26.2889 26.6003 25.792C26.7852 25.5414 26.9901 25.3463 27.2552 25.2146C27.5207 25.0828 27.854 25.0109 28.3012 25.0188ZM8.63984 3.74009C5.94508 3.74009 3.73984 5.94532 3.73984 8.64009V39.3601C3.73984 42.0549 5.94508 44.2601 8.63984 44.2601H39.3598C42.0546 44.2601 44.2598 42.0549 44.2598 39.3601V8.64009C44.2598 5.94532 42.0546 3.74009 39.3598 3.74009H8.63984ZM8.63984 5.86009H39.3598C40.9064 5.86009 42.1398 7.09357 42.1398 8.64009V39.3601C42.1398 40.9066 40.9064 42.1401 39.3598 42.1401H8.63984C7.09333 42.1401 5.85984 40.9066 5.85984 39.3601V8.64009C5.85984 7.09357 7.09333 5.86009 8.63984 5.86009ZM13.4398 12.5688C14.0947 12.5688 14.5346 12.7152 14.8164 12.95C15.0953 13.1824 15.2335 13.5132 15.2617 13.9153C15.2553 14.3038 15.1326 14.6366 14.8567 14.8745C14.5777 15.115 14.1272 15.2713 13.4398 15.2713C12.7912 15.2713 12.3339 15.1053 12.0404 14.8545C11.7483 14.6048 11.6086 14.263 11.6086 13.8882C11.6086 13.5178 11.741 13.2433 12.0267 13.0029C12.3132 12.7618 12.7826 12.5688 13.4398 12.5688ZM10.5598 18.1401C10.2787 18.1401 10.0091 18.2518 9.81034 18.4506C9.61156 18.6494 9.49987 18.919 9.49984 19.2001V37.4401C9.49987 37.7212 9.61156 37.9908 9.81034 38.1896C10.0091 38.3884 10.2787 38.5001 10.5598 38.5001H16.3198C16.601 38.5001 16.8706 38.3884 17.0693 38.1896C17.2681 37.9908 17.3798 37.7212 17.3798 37.4401V31.8095V19.2001C17.3798 18.919 17.2681 18.6494 17.0693 18.4506C16.8706 18.2518 16.601 18.1401 16.3199 18.1401H10.5598ZM15.2598 20.2601V31.8095V36.3801H11.6198V20.2601H15.2598Z" fill="#343434" stroke="#343434" stroke-width="0.2"/>
</svg>