<svg xmlns="http://www.w3.org/2000/svg" width="49" height="48" viewBox="0 0 49 48" fill="none">
  <g clip-path="url(#clip0_1_287)">
    <path fill-rule="evenodd" clip-rule="evenodd" d="M44.6542 13.389C43.4332 11.283 42.1102 10.896 39.4132 10.749C36.7192 10.572 29.9422 10.5 24.0742 10.5C18.1942 10.5 11.4142 10.572 8.72318 10.749C6.03218 10.899 4.70618 11.283 3.47318 13.389C2.21618 15.495 1.56818 19.116 1.56818 25.494V25.518C1.56818 31.869 2.21618 35.517 3.47318 37.596C4.70318 39.699 6.02918 40.083 8.72318 40.26C11.4142 40.41 18.1912 40.5 24.0742 40.5C29.9422 40.5 36.7192 40.41 39.4162 40.26C42.1132 40.083 43.4362 39.699 44.6572 37.596C45.9292 35.514 46.5712 31.866 46.5712 25.518V25.494C46.5682 19.116 45.9292 15.495 44.6542 13.389Z" stroke="#343434" stroke-width="3" stroke-miterlimit="10" stroke-linecap="round" stroke-linejoin="round"/>
    <path fill-rule="evenodd" clip-rule="evenodd" d="M19.5682 33V18L31.5682 25.5L19.5682 33Z" stroke="#343434" stroke-width="2.5" stroke-miterlimit="10" stroke-linecap="round" stroke-linejoin="round"/>
  </g>
  <defs>
    <clipPath id="clip0_1_287">
      <rect width="48" height="48" fill="white" transform="translate(0.0681763)"/>
    </clipPath>
  </defs>
</svg>